<?xml version="1.0" standalone="no"?>
<!DOCTYPE svg PUBLIC "-//W3C//DTD SVG 20010904//EN"
 "http://www.w3.org/TR/2001/REC-SVG-20010904/DTD/svg10.dtd">
<svg version="1.0" xmlns="http://www.w3.org/2000/svg"
 width="512.000000pt" height="512.000000pt" viewBox="0 0 512.000000 512.000000"
 preserveAspectRatio="xMidYMid meet">
<metadata>
Created by potrace 1.14, written by Peter Selinger 2001-2017
</metadata>
<g transform="translate(0.000000,512.000000) scale(0.100000,-0.100000)"
fill="#000000" stroke="none">
<path d="M1672 3553 c-35 -7 -89 -66 -96 -107 -14 -76 23 -119 174 -199 494
-264 1126 -332 1808 -193 138 29 150 33 186 77 51 60 26 158 -50 194 -38 18
-40 18 -174 -8 -74 -15 -182 -34 -240 -43 -147 -21 -507 -30 -653 -15 -289 30
-577 118 -795 244 -79 45 -119 58 -160 50z"/>
<path d="M1397 2977 c-101 -62 -111 -187 -22 -266 48 -42 331 -180 469 -229
208 -74 421 -125 661 -158 204 -29 619 -26 825 5 187 28 407 82 454 111 39 23
76 91 76 136 0 49 -40 116 -85 141 -51 29 -82 29 -197 -2 -127 -33 -299 -62
-443 -75 -527 -44 -1118 75 -1520 307 -100 58 -160 67 -218 30z"/>
<path d="M1155 2348 c-137 -48 -179 -219 -78 -323 71 -73 410 -222 680 -299
544 -156 1252 -189 1808 -86 149 28 292 67 337 93 124 69 130 252 11 327 -70
45 -101 45 -253 6 -529 -134 -1264 -116 -1817 45 -171 50 -305 103 -461 184
-130 67 -163 75 -227 53z"/>
</g>
</svg>
